<svg width="11" height="14" viewBox="0 0 11 14" fill="none" xmlns="http://www.w3.org/2000/svg">
<path d="M0.687589 14V0.909091H5.92907C6.89213 0.909091 7.6954 1.05185 8.33887 1.33736C8.98233 1.62287 9.466 2.01918 9.78986 2.52628C10.1137 3.02912 10.2757 3.60866 10.2757 4.26491C10.2757 4.77628 10.1734 5.22585 9.96884 5.61364C9.76429 5.99716 9.48304 6.3125 9.12509 6.55966C8.7714 6.80256 8.36657 6.97514 7.9106 7.07741V7.20526C8.40918 7.22656 8.8758 7.36719 9.31046 7.62713C9.74938 7.88707 10.1052 8.25142 10.3779 8.72017C10.6507 9.18466 10.787 9.73864 10.787 10.3821C10.787 11.0767 10.6144 11.6967 10.2693 12.2422C9.92836 12.7834 9.42338 13.2116 8.75435 13.527C8.08532 13.8423 7.26074 14 6.28063 14H0.687589ZM3.45534 11.7372H5.71174C6.48304 11.7372 7.04554 11.5902 7.39924 11.2962C7.75293 10.9979 7.92978 10.6016 7.92978 10.1072C7.92978 9.74503 7.84242 9.42543 7.6677 9.14844C7.49299 8.87145 7.2437 8.65412 6.91983 8.49645C6.60023 8.33878 6.21884 8.25994 5.77566 8.25994H3.45534V11.7372ZM3.45534 6.38707H5.50719C5.88645 6.38707 6.2231 6.32102 6.51713 6.18892C6.81543 6.05256 7.04981 5.8608 7.22026 5.61364C7.39498 5.36648 7.48233 5.07031 7.48233 4.72514C7.48233 4.25213 7.31401 3.87074 6.97736 3.58097C6.64498 3.29119 6.17196 3.14631 5.55833 3.14631H3.45534V6.38707Z" fill="#283446"/>
</svg>
