<svg width="31" height="31" viewBox="0 0 31 31" fill="none" xmlns="http://www.w3.org/2000/svg">
<path d="M28.2875 24.223L27.9947 23.9647C27.1641 23.2246 26.4371 22.376 25.8333 21.4416C25.1739 20.1522 24.7786 18.744 24.6708 17.2997V13.0458C24.6765 10.7773 23.8536 8.58479 22.3568 6.88022C20.8599 5.17565 18.7921 4.07635 16.5419 3.78886V2.67803C16.5419 2.37314 16.4208 2.08074 16.2052 1.86515C15.9896 1.64956 15.6972 1.52844 15.3923 1.52844C15.0874 1.52844 14.795 1.64956 14.5794 1.86515C14.3638 2.08074 14.2427 2.37314 14.2427 2.67803V3.80608C12.0127 4.1143 9.96987 5.22025 8.49269 6.91909C7.0155 8.61793 6.20403 10.7946 6.20856 13.0458V17.2997C6.10071 18.744 5.70548 20.1522 5.04607 21.4416C4.45266 22.3737 3.73734 23.2222 2.91912 23.9647L2.62634 24.223V26.6514H28.2875V24.223Z" fill="#4A5B78"/>
<path d="M13.1923 27.5555C13.2678 28.1014 13.5382 28.6015 13.9537 28.9634C14.3692 29.3254 14.9016 29.5248 15.4527 29.5248C16.0037 29.5248 16.5361 29.3254 16.9516 28.9634C17.3671 28.6015 17.6376 28.1014 17.7131 27.5555H13.1923Z" fill="#4A5B78"/>
</svg>
