<svg width="24" height="24" viewBox="0 0 24 24" fill="none" xmlns="http://www.w3.org/2000/svg">
<path fill-rule="evenodd" clip-rule="evenodd" d="M15.7159 17.0916H8.49585C8.08185 17.0916 7.74585 16.7634 7.74585 16.3591C7.74585 15.9548 8.08185 15.6267 8.49585 15.6267H15.7159C16.1299 15.6267 16.4659 15.9548 16.4659 16.3591C16.4659 16.7634 16.1299 17.0916 15.7159 17.0916Z" fill="white"/>
<path fill-rule="evenodd" clip-rule="evenodd" d="M15.7159 13.0032H8.49585C8.08185 13.0032 7.74585 12.675 7.74585 12.2708C7.74585 11.8665 8.08185 11.5383 8.49585 11.5383H15.7159C16.1299 11.5383 16.4659 11.8665 16.4659 12.2708C16.4659 12.675 16.1299 13.0032 15.7159 13.0032Z" fill="white"/>
<path fill-rule="evenodd" clip-rule="evenodd" d="M11.2506 8.92432H8.49561C8.08161 8.92432 7.74561 8.59619 7.74561 8.19189C7.74561 7.7876 8.08161 7.45947 8.49561 7.45947H11.2506C11.6646 7.45947 12.0006 7.7876 12.0006 8.19189C12.0006 8.59619 11.6646 8.92432 11.2506 8.92432Z" fill="white"/>
<mask id="mask0_25_2421" style="mask-type:alpha" maskUnits="userSpaceOnUse" x="3" y="2" width="19" height="20">
<path fill-rule="evenodd" clip-rule="evenodd" d="M3 2.46899H21.1647V21.9122H3V2.46899Z" fill="white"/>
</mask>
<g mask="url(#mask0_25_2421)">
<path fill-rule="evenodd" clip-rule="evenodd" d="M15.9088 3.93359L8.21976 3.9375C5.89176 3.95117 4.49976 5.35742 4.49976 7.7002V16.6807C4.49976 19.0391 5.90476 20.4473 8.25576 20.4473L15.9448 20.4443C18.2728 20.4307 19.6648 19.0225 19.6648 16.6807V7.7002C19.6648 5.3418 18.2608 3.93359 15.9088 3.93359ZM8.25676 21.9121C5.11276 21.9121 2.99976 19.8096 2.99976 16.6807V7.7002C2.99976 4.54297 5.04676 2.49121 8.21476 2.47266L15.9078 2.46875H15.9088C19.0528 2.46875 21.1648 4.57129 21.1648 7.7002V16.6807C21.1648 19.8369 19.1178 21.8896 15.9498 21.9092L8.25676 21.9121Z" fill="white"/>
</g>
</svg>
