<svg width="20" height="20" viewBox="0 0 20 20" fill="none" xmlns="http://www.w3.org/2000/svg">
<path fill-rule="evenodd" clip-rule="evenodd" d="M17.2527 17.4082H11.2223C10.8781 17.4082 10.5988 17.1416 10.5988 16.8131C10.5988 16.4846 10.8781 16.218 11.2223 16.218H17.2527C17.5969 16.218 17.8762 16.4846 17.8762 16.8131C17.8762 17.1416 17.5969 17.4082 17.2527 17.4082Z" fill="#8A8A8E"/>
<mask id="mask0_25_5454" style="mask-type:alpha" maskUnits="userSpaceOnUse" x="1" y="2" width="15" height="16">
<path fill-rule="evenodd" clip-rule="evenodd" d="M1.66309 2.38049H15.9475V17.4082H1.66309V2.38049Z" fill="white"/>
</mask>
<g mask="url(#mask0_25_5454)">
<path fill-rule="evenodd" clip-rule="evenodd" d="M10.9005 3.98061L3.07258 13.3236C2.93041 13.4934 2.87803 13.7124 2.93041 13.9226L3.49661 16.2118L6.02331 16.1816C6.26359 16.1792 6.48558 16.0769 6.63275 15.9023C9.30744 12.7086 14.4066 6.61965 14.5512 6.44112C14.6876 6.23006 14.7408 5.93172 14.6693 5.64449C14.5961 5.35012 14.4041 5.10018 14.1272 4.9407C14.0682 4.90182 12.6672 3.86397 12.624 3.83144C12.0969 3.42837 11.3278 3.49819 10.9005 3.98061ZM3.0044 17.4083C2.7159 17.4083 2.46481 17.2194 2.39746 16.9505L1.71653 14.1964C1.57601 13.6259 1.71569 13.0371 2.09898 12.5801L9.93101 3.23159C9.93434 3.22842 9.93683 3.22445 9.94016 3.22127C10.799 2.24135 12.3521 2.09695 13.3997 2.89913C13.4413 2.93008 14.8323 3.96157 14.8323 3.96157C15.3378 4.2488 15.7327 4.76217 15.8824 5.36996C16.0312 5.9714 15.9231 6.59188 15.5764 7.11635C15.5506 7.15523 15.5282 7.18856 7.60635 16.6466C7.22472 17.1004 6.6527 17.3646 6.03828 17.3718L3.01272 17.4083H3.0044Z" fill="#8A8A8E"/>
</g>
<path fill-rule="evenodd" clip-rule="evenodd" d="M13.4885 9.27142C13.3555 9.27142 13.2224 9.23096 13.1085 9.14844L8.57559 5.82544C8.30288 5.62549 8.25133 5.25256 8.46085 4.99072C8.6712 4.73047 9.06197 4.68207 9.33551 4.88202L13.8693 8.20423C14.142 8.40418 14.1935 8.77789 13.9832 9.03894C13.861 9.19129 13.6756 9.27142 13.4885 9.27142Z" fill="#8A8A8E"/>
</svg>
