<svg width="24" height="24" viewBox="0 0 24 24" fill="none" xmlns="http://www.w3.org/2000/svg">
<path d="M4.41067 5.61545L4.98466 5.13271L4.98466 5.13271L4.41067 5.61545ZM19.646 5.61545L19.072 5.13271L19.646 5.61545ZM13.8 17.15L14.25 17.75L13.8 17.15ZM14.1173 12.1892L14.6913 12.6719L14.1173 12.1892ZM9.88266 12.1218L10.4567 11.6391L9.88266 12.1218ZM10.4567 11.6391L4.98466 5.13271L3.83668 6.09819L9.30867 12.6046L10.4567 11.6391ZM4.98466 5.13271C4.84789 4.97009 4.9635 4.7218 5.17599 4.7218V3.2218C3.68857 3.2218 2.8793 4.95984 3.83668 6.09819L4.98466 5.13271ZM5.17599 4.7218H18.8807V3.2218H5.17599V4.7218ZM18.8807 4.7218C19.0932 4.7218 19.2088 4.97009 19.072 5.13271L20.22 6.09819C21.1774 4.95984 20.3681 3.2218 18.8807 3.2218V4.7218ZM19.072 5.13271L13.5434 11.7064L14.6913 12.6719L20.22 6.09819L19.072 5.13271ZM13.25 12.511V16.75H14.75V12.511H13.25ZM13.35 16.55L10.35 18.8L11.25 20L14.25 17.75L13.35 16.55ZM10.75 19V12.4436H9.25V19H10.75ZM10.35 18.8C10.5148 18.6764 10.75 18.794 10.75 19H9.25C9.25 20.03 10.426 20.618 11.25 20L10.35 18.8ZM13.25 16.75C13.25 16.6713 13.287 16.5972 13.35 16.55L14.25 17.75C14.5648 17.5139 14.75 17.1434 14.75 16.75H13.25ZM13.5434 11.7064C13.3539 11.9317 13.25 12.2166 13.25 12.511H14.75C14.75 12.5699 14.7292 12.6269 14.6913 12.6719L13.5434 11.7064ZM9.30867 12.6046C9.27078 12.5595 9.25 12.5025 9.25 12.4436H10.75C10.75 12.1493 10.6461 11.8644 10.4567 11.6391L9.30867 12.6046Z" fill="#F2F2F2"/>
</svg>
