<svg width="24" height="25" viewBox="0 0 24 25" fill="none" xmlns="http://www.w3.org/2000/svg">
<mask id="mask0_25_2418" style="mask-type:alpha" maskUnits="userSpaceOnUse" x="2" y="1" width="21" height="22">
<path fill-rule="evenodd" clip-rule="evenodd" d="M2 1.66431H22.4998V22.6653H2V1.66431Z" fill="white"/>
</mask>
<g mask="url(#mask0_25_2418)">
<path fill-rule="evenodd" clip-rule="evenodd" d="M13.7168 15.6205C14.9208 15.6205 15.9008 16.5707 15.9008 17.7386V20.7426C15.9008 20.9935 16.1068 21.1947 16.3708 21.2006H18.2768C19.7788 21.2006 20.9998 20.0228 20.9998 18.5756V10.056C20.9928 9.55798 20.7498 9.08923 20.3328 8.77771L13.7398 3.64294C12.8548 2.95837 11.6168 2.95837 10.7288 3.6449L4.18076 8.77576C3.74776 9.09705 3.50476 9.5658 3.49976 10.0726V18.5756C3.49976 20.0228 4.72076 21.2006 6.22276 21.2006H8.14676C8.41776 21.2006 8.63776 20.9906 8.63776 20.7328C8.63776 20.6761 8.64476 20.6195 8.65676 20.5658V17.7386C8.65676 16.5775 9.63076 15.6283 10.8258 15.6205H13.7168ZM18.2768 22.6654H16.3528C15.2508 22.64 14.4008 21.7953 14.4008 20.7426V17.7386C14.4008 17.3783 14.0938 17.0853 13.7168 17.0853H10.8308C10.4618 17.0873 10.1568 17.3812 10.1568 17.7386V20.7328C10.1568 20.806 10.1468 20.8763 10.1258 20.9427C10.0178 21.9095 9.17176 22.6654 8.14676 22.6654H6.22276C3.89376 22.6654 1.99976 20.8304 1.99976 18.5756V10.0658C2.00976 9.09509 2.46776 8.20642 3.25876 7.62146L9.79376 2.49939C11.2328 1.38611 13.2378 1.38611 14.6738 2.49744L21.2558 7.62439C22.0288 8.19958 22.4868 9.0863 22.4998 10.0453V18.5756C22.4998 20.8304 20.6058 22.6654 18.2768 22.6654Z" fill="white"/>
</g>
</svg>
