<svg width="31" height="31" viewBox="0 0 31 31" fill="none" xmlns="http://www.w3.org/2000/svg">
<mask id="mask0_60_4842" style="mask-type:alpha" maskUnits="userSpaceOnUse" x="2" y="2" width="27" height="27">
<path fill-rule="evenodd" clip-rule="evenodd" d="M2.58374 2.5835H28.3649V28.352H2.58374V2.5835Z" fill="white"/>
</mask>
<g mask="url(#mask0_60_4842)">
<path fill-rule="evenodd" clip-rule="evenodd" d="M9.88166 4.52051C6.62537 4.52051 4.52124 6.75122 4.52124 10.2025V20.7322C4.52124 24.1848 6.62537 26.4143 9.88166 26.4143H21.0546C24.3186 26.4143 26.4279 24.1848 26.4279 20.7322V10.2025C26.4279 6.75122 24.3186 4.52051 21.0546 4.52051H9.88166ZM21.0546 28.3518H9.88166C5.51582 28.3518 2.58374 25.2892 2.58374 20.7322V10.2025C2.58374 5.64555 5.51582 2.58301 9.88166 2.58301H21.0546C25.4269 2.58301 28.3654 5.64555 28.3654 10.2025V20.7322C28.3654 25.2892 25.4269 28.3518 21.0546 28.3518Z" fill="white"/>
</g>
<path fill-rule="evenodd" clip-rule="evenodd" d="M6.82179 22.1914C6.58154 22.1914 6.34258 22.1035 6.15529 21.9253C5.76649 21.5585 5.75099 20.9436 6.11912 20.5574L8.09278 18.474C9.13774 17.3644 10.9009 17.3102 12.0156 18.3564L13.253 19.6119C13.5979 19.9607 14.1585 19.9671 14.5046 19.6261C14.6351 19.4724 17.4483 16.056 17.4483 16.056C17.9831 15.4075 18.7374 15.0071 19.5757 14.9245C20.4153 14.8508 21.2303 15.095 21.88 15.6284C21.9356 15.6736 21.986 15.7175 24.8225 18.6303C25.1957 19.0126 25.1893 19.6261 24.8057 19.9994C24.4233 20.3753 23.8085 20.3637 23.4352 19.9813C23.4352 19.9813 20.7886 17.265 20.6 17.0815C20.3998 16.9175 20.0782 16.8219 19.7617 16.8529C19.4401 16.8852 19.1507 17.0389 18.9454 17.2882C15.9435 20.9294 15.9074 20.9643 15.8583 21.0121C14.75 22.0997 12.9611 22.0816 11.8722 20.9708C11.8722 20.9708 10.671 19.7514 10.6503 19.7269C10.3519 19.4505 9.81974 19.4685 9.5007 19.8057L7.52445 21.8891C7.33328 22.0906 7.07754 22.1914 6.82179 22.1914Z" fill="white"/>
<path fill-rule="evenodd" clip-rule="evenodd" d="M11.0534 10.4995C10.3391 10.4995 9.75781 11.0808 9.75781 11.7963C9.75781 12.5119 10.3391 13.0945 11.0546 13.0945C11.7702 13.0945 12.3528 12.5119 12.3528 11.7963C12.3528 11.0821 11.7702 10.5008 11.0534 10.4995ZM11.0546 15.032C9.27085 15.032 7.82031 13.5801 7.82031 11.7963C7.82031 10.0126 9.27085 8.56201 11.0546 8.56201C12.8397 8.5633 14.2903 10.0151 14.2903 11.7963C14.2903 13.5801 12.8384 15.032 11.0546 15.032Z" fill="white"/>
</svg>
