<svg width="24" height="24" viewBox="0 0 24 24" fill="none" xmlns="http://www.w3.org/2000/svg">
<path d="M10.9636 0C13.8308 0 16.1692 2.29834 16.1692 5.12796V10.6601H9.1187C8.61341 10.6601 8.21388 11.0528 8.21388 11.5495C8.21388 12.0345 8.61341 12.4388 9.1187 12.4388H16.1692V17.9594C16.1692 20.789 13.8308 23.0989 10.9401 23.0989H5.2174C2.33843 23.0989 0 20.8006 0 17.971V5.13951C0 2.29834 2.35018 0 5.22915 0H10.9636ZM19.103 7.56512C19.4495 7.20709 20.0154 7.20709 20.3619 7.55358L23.7344 10.9145C23.9076 11.0877 24 11.3071 24 11.5497C24 11.7807 23.9076 12.0117 23.7344 12.1734L20.3619 15.5342C20.1887 15.7075 19.9577 15.7999 19.7383 15.7999C19.5073 15.7999 19.2763 15.7075 19.103 15.5342C18.7565 15.1878 18.7565 14.6218 19.103 14.2754L20.9509 12.439H16.1695V10.6604H20.9509L19.103 8.82402C18.7565 8.47753 18.7565 7.91161 19.103 7.56512Z" fill="#1A1A1A"/>
</svg>
