<svg width="14" height="20" viewBox="0 0 14 20" fill="none" xmlns="http://www.w3.org/2000/svg">
<path d="M2.63752 11.1094C2.79177 10.9617 3.03316 10.9483 3.20326 11.0691L3.25199 11.1094L7.00008 14.6974L10.7482 11.1094C10.9024 10.9617 11.1438 10.9483 11.3139 11.0691L11.3626 11.1094C11.5169 11.2571 11.5309 11.4881 11.4047 11.651L11.3626 11.6976L7.30731 15.58C7.15306 15.7276 6.91167 15.7411 6.74157 15.6202L6.69284 15.58L2.63752 11.6976C2.46783 11.5352 2.46783 11.2718 2.63752 11.1094Z" fill="#272727"/>
<path d="M11.3787 8.90308C11.2255 9.05151 10.9842 9.06611 10.8133 8.94611L10.7642 8.90607L6.99026 5.33639L3.26819 8.94258C3.115 9.09101 2.87372 9.10561 2.70275 8.98561L2.65373 8.94558C2.49841 8.79865 2.48271 8.56764 2.60774 8.40418L2.64947 8.35733L6.67664 4.45532C6.82983 4.3069 7.07111 4.2923 7.24208 4.41229L7.29111 4.45233L11.3744 8.31483C11.5453 8.47645 11.5472 8.73981 11.3787 8.90308Z" fill="#272727"/>
</svg>
