<svg width="11" height="15" viewBox="0 0 11 15" fill="none" xmlns="http://www.w3.org/2000/svg">
<path d="M8.15829 0.909091H10.926V9.41051C10.926 10.3651 10.6981 11.2003 10.2421 11.9162C9.79039 12.6321 9.15758 13.1903 8.34366 13.5909C7.52974 13.9872 6.58159 14.1854 5.4992 14.1854C4.41255 14.1854 3.46227 13.9872 2.64835 13.5909C1.83443 13.1903 1.20162 12.6321 0.749911 11.9162C0.298207 11.2003 0.0723544 10.3651 0.0723544 9.41051V0.909091H2.84011V9.17401C2.84011 9.67259 2.94877 10.1158 3.1661 10.5036C3.3877 10.8913 3.69878 11.196 4.09934 11.4176C4.49991 11.6392 4.96653 11.75 5.4992 11.75C6.03613 11.75 6.50275 11.6392 6.89906 11.4176C7.29963 11.196 7.60858 10.8913 7.82591 10.5036C8.0475 10.1158 8.15829 9.67259 8.15829 9.17401V0.909091Z" fill="#283446"/>
<path d="M-1.06543 17.5795H12.0638V18.8068H-1.06543V17.5795Z" fill="#283446"/>
</svg>
